<svg xmlns="http://www.w3.org/2000/svg" viewBox="0 0 280 232"><rect width="280" height="232" fill="#d27a34"/><ellipse cx="118" cy="150" rx="90" ry="28" fill="#e8b882"/><ellipse cx="28" cy="116" rx="18" ry="20" fill="#e8b882"/><rect x="16" y="0" width="8" height="232" transform="rotate(-8 20 116)" fill="#9c4a1c"/><rect x="33" y="0" width="8" height="232" transform="rotate(-8 37 116)" fill="#9c4a1c"/><rect x="50" y="0" width="8" height="232" transform="rotate(-8 54 116)" fill="#9c4a1c"/><rect x="67" y="0" width="8" height="232" transform="rotate(-8 71 116)" fill="#9c4a1c"/><rect x="84" y="0" width="8" height="232" transform="rotate(-8 88 116)" fill="#9c4a1c"/><rect x="101" y="0" width="8" height="232" transform="rotate(-8 105 116)" fill="#9c4a1c"/><rect x="118" y="0" width="8" height="232" transform="rotate(-8 122 116)" fill="#9c4a1c"/><rect x="135" y="0" width="8" height="232" transform="rotate(-8 139 116)" fill="#9c4a1c"/><rect x="152" y="0" width="8" height="232" transform="rotate(-8 156 116)" fill="#9c4a1c"/><rect x="169" y="0" width="8" height="232" transform="rotate(-8 173 116)" fill="#9c4a1c"/><rect x="186" y="0" width="8" height="232" transform="rotate(-8 190 116)" fill="#9c4a1c"/><rect x="203" y="0" width="8" height="232" transform="rotate(-8 207 116)" fill="#9c4a1c"/><rect x="220" y="0" width="8" height="232" transform="rotate(-8 224 116)" fill="#9c4a1c"/></svg>
